{"title":"Gamer.2009.BRRIP.H264-ZEKTORM","uid":5178110,"size":734442555,"categoryP":"video","categoryS":"movies","magnet":"?xt=urn:btih:11fa27c3aa722d47f3edf446454fac5cfdcb9c04&amp;dn=Gamer.2009.BRRIP.H264-ZEKTORM&amp;tr=udp%3A%2F%2Ftracker.openbittorrent.com%3A80&amp;tr=udp%3A%2F%2Fopen.demonii.com%3A1337&amp;tr=udp%3A%2F%2Ftracker.coppersurfer.tk%3A6969&amp;tr=udp%3A%2F%2Fexodus.desync.com%3A6969","seeders":0,"leechers":0,"uploader":"blowley","files":2,"time":1259086660,"description":"Title                            : Gamer\nYear                             : 2009\nGenre                            : Action | Sci-Fi | Thriller\niMDB URL                         : http://www.imdb.com/title/tt1034032/\nAwards                           : 1 win\n\nComplete name                    : Gamer.2009.BRRIP.H264-ZEKTORM.mp4\nFormat                           : MPEG-4\nFormat profile                   : Base Media\nCodec ID                         : isom\nFile size                        : 700 MiB\nDuration                         : 1h 34mn\nOverall bit rate                 : 1032 Kbps\n\nVideo\nFormat                           : AVC\nFormat/Info                      : Advanced Video Codec\nFormat profile                   : &lt;a class=&quot;__cf_email__&quot; href=&quot;/cdn-cgi/l/email-protection&quot; data-cfemail=&quot;4901202e2109057d6778&quot;&gt;[email&amp;#160;protected]&lt;/a&gt;&lt;script cf-hash='f9e31' type=&quot;text/javascript&quot;&gt;\n/* &lt;![CDATA[ */!function(){try{var t=&quot;currentScript&quot;in document?document.currentScript:function(){for(var t=document.getElementsByTagName(&quot;script&quot;),e=t.length;e--;)if(t[e].getAttribute(&quot;cf-hash&quot;))return t[e]}();if(t&amp;&amp;t.previousSibling){var e,r,n,i,c=t.previousSibling,a=c.getAttribute(&quot;data-cfemail&quot;);if(a){for(e=&quot;&quot;,r=parseInt(a.substr(0,2),16),n=2;a.length-n;n+=2)i=parseInt(a.substr(n,2),16)^r,e+=String.fromCharCode(i);e=document.createTextNode(e),c.parentNode.replaceChild(e,c)}}}catch(u){}}();/* ]]&gt; */&lt;/script&gt;\nFormat settings, CABAC           : Yes\nCodec ID                         : avc1\nCodec ID/Info                    : Advanced Video Coding\nDuration                         : 1h 34mn\nBit rate mode                    : Variable\nBit rate                         : 817 Kbps\nWidth                            : 720 pixels\nHeight                           : 384 pixels\nDisplay aspect ratio             : 1.875\nFrame rate mode                  : Constant\nFrame rate                       : 23.976 fps\nResolution                       : 24 bits\nColorimetry                      : 4:2:0\nScan type                        : Progressive\nBits/(Pixel*Frame)               : 0.123\nStream size                      : 554 MiB (79%)\nTitle                            : Video\nWriting library                  : x264 \n\nAudio\nFormat                           : AAC\nFormat/Info                      : Advanced Audio Codec\nDuration                         : 1h 34mn\nBit rate mode                    : Variable\nBit rate                         : 213 Kbps\nMaximum bit rate                 : 249 Kbps\nChannel(s)                       : 6 channels\nChannel positions                : Front: L C R, Rear: L R, LFE\nSampling rate                    : 48.0 KHz\nResolution                       : 16 bits\nStream size                      : 145 MiB (21%)\nTitle                            : English\nLanguage                         : English\n","torrent":{"xt":"urn:btih:11fa27c3aa722d47f3edf446454fac5cfdcb9c04","amp;dn":"Gamer.2009.BRRIP.H264-ZEKTORM","amp;tr":["udp%3A%2F%2Ftracker.openbittorrent.com%3A80","udp%3A%2F%2Fopen.demonii.com%3A1337","udp%3A%2F%2Ftracker.coppersurfer.tk%3A6969","udp%3A%2F%2Fexodus.desync.com%3A6969"],"infoHash":"11fa27c3aa722d47f3edf446454fac5cfdcb9c04","infoHashBuffer":{"type":"Buffer","data":[17,250,39,195,170,114,45,71,243,237,244,70,69,79,172,92,253,203,156,4]},"announce":[],"urlList":[]}}